<?xml version="1.0" standalone="no"?>
<!DOCTYPE svg PUBLIC "-//W3C//DTD SVG 20010904//EN"
 "http://www.w3.org/TR/2001/REC-SVG-20010904/DTD/svg10.dtd">
<svg version="1.0" xmlns="http://www.w3.org/2000/svg"
 width="523.000000pt" height="523.000000pt" viewBox="0 0 523.000000 523.000000"
 preserveAspectRatio="xMidYMid meet">
<metadata>
Created by potrace 1.14, written by Peter Selinger 2001-2017
</metadata>
<g transform="translate(0.000000,523.000000) scale(0.100000,-0.100000)"
fill="#000000" stroke="none">
<path d="M1113 5210 c-42 -17 -139 -125 -149 -167 -4 -13 -10 -23 -14 -23 -5
0 -14 -17 -21 -37 -6 -21 -15 -42 -19 -48 -8 -12 -37 -108 -45 -150 -20 -105
-27 -203 -30 -395 -2 -176 -7 -230 -23 -254 -4 -6 -8 -45 -9 -86 -2 -41 -5
-134 -8 -207 -5 -134 3 -178 47 -270 10 -21 5 -209 -8 -293 -6 -34 -42 -130
-53 -140 -8 -7 -29 -44 -58 -100 -24 -47 -21 -70 4 -32 9 12 22 22 30 22 10 0
12 -7 8 -22 -28 -98 -52 -158 -72 -185 -12 -17 -23 -39 -23 -47 0 -9 -4 -16
-10 -16 -5 0 -14 -10 -21 -21 -10 -20 -9 -21 16 -15 24 6 26 5 19 -16 -4 -13
-18 -56 -30 -97 l-23 -73 22 5 c12 2 30 8 39 12 32 13 20 -18 -25 -66 -24 -26
-42 -50 -40 -56 2 -5 30 -8 63 -7 38 1 59 -2 57 -9 -2 -12 -112 -87 -128 -87
-6 0 -7 -5 -4 -10 4 -7 12 -7 25 0 26 14 40 12 40 -4 0 -8 -9 -18 -20 -21 -11
-3 -20 -11 -20 -16 0 -5 -5 -9 -11 -9 -6 0 -22 -9 -35 -19 -22 -17 -23 -20 -7
-23 10 -2 30 -1 44 3 53 14 149 -2 149 -25 0 -21 -88 -105 -124 -119 -15 -6
-16 -10 -6 -22 6 -8 15 -14 18 -13 29 3 52 -4 52 -17 0 -9 -6 -15 -12 -14 -26
3 -61 -1 -55 -7 5 -5 154 -60 182 -68 50 -12 120 -66 167 -128 13 -16 40 -51
60 -76 44 -54 46 -62 16 -63 -42 -2 -73 -8 -98 -17 -24 -9 -23 -10 20 -23 25
-7 48 -12 53 -11 4 1 7 -5 7 -13 0 -8 -8 -16 -17 -17 -10 0 -22 -2 -28 -3 -5
-2 -18 -3 -27 -4 -11 -1 -15 -6 -12 -16 4 -9 12 -14 18 -13 12 3 85 -49 121
-87 42 -43 95 -112 95 -124 0 -6 4 -11 10 -11 5 0 9 -3 8 -7 -5 -18 14 -53 25
-47 7 4 9 4 5 0 -3 -4 0 -22 7 -41 8 -18 11 -35 8 -39 -4 -3 0 -6 7 -6 7 0 10
-3 7 -7 -4 -3 -1 -13 6 -21 10 -13 9 -14 -3 -7 -12 7 -13 6 -4 -6 10 -13 22
-48 30 -89 5 -23 27 -60 36 -60 7 0 13 49 9 73 -1 5 6 7 15 5 14 -3 44 -64 46
-95 1 -7 5 -13 9 -13 3 0 10 -10 14 -22 9 -27 6 -22 33 -78 12 -25 22 -51 22
-57 0 -7 4 -13 9 -13 5 0 11 -10 13 -22 7 -49 21 -9 19 54 -2 61 -1 67 18 65
14 -1 41 -34 88 -106 37 -58 67 -109 66 -113 -2 -4 4 -8 12 -8 12 0 14 8 9 40
-8 52 12 54 45 5 13 -19 27 -35 32 -35 5 0 9 -4 9 -10 0 -5 18 -33 40 -62 22
-29 40 -59 40 -65 0 -7 4 -13 8 -13 5 0 16 -16 25 -35 21 -45 35 -45 32 0 -3
35 16 49 29 23 3 -7 14 -25 24 -39 9 -14 29 -45 45 -67 31 -47 47 -54 39 -17
-2 14 -1 25 3 25 18 0 117 -81 164 -134 14 -16 36 -40 48 -54 13 -14 23 -31
23 -38 0 -7 5 -16 11 -20 9 -5 10 11 6 60 -3 36 -4 66 -1 66 28 0 173 -145
203 -203 8 -15 18 -27 23 -27 4 0 8 -6 8 -13 0 -7 10 -24 21 -36 21 -22 22
-22 32 -5 6 11 16 23 24 27 7 4 13 12 13 17 0 29 116 167 179 214 51 38 55 29
36 -73 -5 -30 -4 -33 10 -21 8 7 15 16 15 21 0 15 133 159 147 159 3 0 14 10
24 22 11 11 19 18 19 14 0 -4 7 0 16 8 8 9 20 16 25 16 13 0 11 -24 -3 -38 -9
-9 -9 -12 3 -12 8 0 39 36 68 80 30 44 58 80 62 80 5 0 9 -17 9 -37 l1 -38 24
28 c14 15 25 35 25 43 0 8 5 14 10 14 6 0 10 5 10 10 0 11 34 63 58 89 8 8 32
38 54 67 22 30 44 52 48 49 11 -7 9 -58 -2 -72 -7 -9 -6 -13 3 -13 8 0 28 23
44 50 17 27 33 50 36 50 4 0 9 10 13 23 3 13 13 33 23 44 10 12 25 31 33 42 8
12 22 21 31 21 14 0 16 -11 15 -71 0 -39 2 -73 5 -75 7 -4 19 19 24 42 2 6 20
46 40 89 21 43 48 103 59 134 27 67 54 81 54 26 0 -56 20 -65 24 -12 1 15 6
27 11 27 4 0 6 4 3 9 -3 4 1 17 8 27 11 15 12 22 3 33 -10 12 -9 13 2 6 11 -6
13 -2 9 18 -3 17 -1 24 8 20 6 -2 15 1 20 8 4 8 3 10 -4 5 -7 -4 -12 -2 -12 3
0 6 5 11 11 11 5 0 7 5 4 10 -4 6 5 26 20 45 14 20 23 40 20 45 -3 6 0 10 8
10 10 0 13 7 10 20 -3 11 0 20 6 20 6 0 11 6 11 13 0 18 135 159 143 150 4 -3
7 -1 7 5 0 6 18 21 41 32 23 12 39 24 36 26 -4 5 -40 10 -84 13 -22 2 -14 27
8 28 11 1 37 7 57 14 l37 12 -30 9 c-30 9 -65 15 -97 17 -22 1 -24 29 -3 37 8
4 15 10 15 16 0 5 6 15 13 22 6 7 28 33 47 57 76 95 106 114 283 175 43 15 73
30 67 34 -6 4 -22 5 -36 2 -17 -3 -24 0 -24 12 0 9 6 16 13 17 20 1 61 9 64
13 2 2 -15 18 -39 37 -57 44 -98 87 -98 104 0 25 98 40 165 25 19 -4 35 -5 35
-1 0 12 -48 50 -54 44 -3 -4 -6 -1 -6 5 0 6 -9 14 -20 17 -11 3 -20 13 -20 21
0 17 1 17 34 4 20 -7 24 -6 20 5 -3 8 -14 17 -24 20 -25 8 -100 63 -100 74 0
5 29 8 63 7 57 -1 63 1 59 16 -2 10 -11 18 -18 18 -8 0 -14 5 -14 10 0 6 -11
23 -25 38 -34 36 -33 55 1 42 48 -19 55 -14 38 25 -8 19 -12 35 -9 35 3 0 -1
12 -9 28 -7 15 -17 42 -21 60 -5 25 -3 32 9 32 9 0 16 -4 16 -10 0 -5 5 -10
11 -10 5 0 0 18 -12 40 -13 22 -27 40 -31 40 -5 0 -6 5 -3 10 3 6 -1 13 -9 16
-9 3 -16 12 -16 19 0 6 -7 25 -15 42 -8 16 -17 40 -19 54 -2 13 -5 24 -6 24
-1 0 -3 7 -5 15 -2 8 -7 25 -11 38 -5 16 -2 22 10 22 9 0 20 -8 24 -17 4 -10
13 -19 20 -21 13 -2 -30 85 -71 149 -10 14 -14 29 -10 32 3 4 1 7 -5 7 -27 0
-46 117 -47 285 0 95 4 127 18 155 26 53 29 74 29 195 -1 212 -10 337 -24 346
-10 6 -13 49 -15 171 -2 177 -8 310 -18 373 -10 67 -13 90 -15 90 -1 0 -3 7
-5 15 -22 107 -98 267 -158 332 -50 53 -93 78 -139 78 -32 0 -74 -21 -90 -44
-4 -6 -8 -7 -8 -3 0 5 -8 1 -17 -9 -10 -10 -52 -42 -93 -73 -93 -69 -94 -69
-136 -108 -20 -18 -40 -33 -45 -33 -6 0 -7 -4 -4 -10 3 -5 1 -10 -5 -10 -16 0
-82 -73 -105 -117 -11 -21 -22 -40 -25 -43 -3 -3 -11 -15 -17 -27 -7 -13 -19
-33 -25 -45 -7 -13 -15 -25 -18 -28 -3 -3 -19 -26 -37 -51 -40 -57 -82 -102
-108 -116 -12 -6 -52 -9 -95 -6 -117 7 -180 7 -245 0 -76 -9 -160 -23 -160
-28 0 -2 -25 -7 -75 -15 -64 -10 -264 -6 -315 6 -161 38 -259 50 -350 42 -38
-3 -98 -6 -133 -6 -67 0 -71 2 -154 103 -25 30 -138 211 -132 211 3 0 -1 6 -8
14 -7 7 -20 24 -28 37 -21 33 -109 120 -150 149 -19 13 -40 29 -46 35 -6 5
-22 17 -34 25 -12 8 -49 35 -82 60 -120 90 -157 103 -215 80z"/>
</g>
</svg>
